<svg width="95" height="98" viewBox="0 0 95 98" fill="none" xmlns="http://www.w3.org/2000/svg">
<rect x="8" y="7" width="80" height="80" rx="8" fill="#0B0815"/>
<g filter="url(#filter0_ddi)">
<path d="M44.3044 39.4653L38.6791 65.9306L41.6256 66.5569L44.5722 67.1832L49.9584 41.843L55.3446 16.5028L56.0411 16.6508L56.7375 16.7988L51.3513 42.139L45.9651 67.4793L47.0901 67.7184L48.2151 67.9575L53.8405 41.4923L59.4659 15.027L56.5193 14.4007L53.5728 13.7744L48.1866 39.1146L42.8003 64.4548L42.1575 64.3182L41.5146 64.1815L46.9008 38.8413L52.287 13.5011L51.1084 13.2506L49.9298 13.0001L44.3044 39.4653Z" fill="#F7228F"/>
<path d="M41.4318 73.5821C40.4157 73.5677 39.3777 74.131 38.8305 74.9666C38.4474 75.5571 38.2521 76.7922 38.4414 77.482C38.577 78.0035 39.0118 78.6447 39.5052 79.0632C39.9772 79.477 41.6769 79.8047 42.3216 79.617C43.7057 79.2169 44.6054 77.8291 44.4865 76.2808C44.3862 74.8036 43.0193 73.5948 41.4318 73.5821Z" fill="#F7228F"/>
</g>
<defs>
<filter id="filter0_ddi" x="20.8322" y="-3.99994" width="55.6337" height="101.194" filterUnits="userSpaceOnUse" color-interpolation-filters="sRGB">
<feFlood flood-opacity="0" result="BackgroundImageFix"/>
<feColorMatrix in="SourceAlpha" type="matrix" values="0 0 0 0 0 0 0 0 0 0 0 0 0 0 0 0 0 0 127 0"/>
<feOffset dy="-3"/>
<feGaussianBlur stdDeviation="5"/>
<feColorMatrix type="matrix" values="0 0 0 0 0.9875 0 0 0 0 0.345625 0 0 0 0 0.674096 0 0 0 0.76 0"/>
<feBlend mode="normal" in2="BackgroundImageFix" result="effect1_dropShadow"/>
<feColorMatrix in="SourceAlpha" type="matrix" values="0 0 0 0 0 0 0 0 0 0 0 0 0 0 0 0 0 0 127 0"/>
<feOffset/>
<feGaussianBlur stdDeviation="8.5"/>
<feColorMatrix type="matrix" values="0 0 0 0 1 0 0 0 0 1 0 0 0 0 1 0 0 0 0.73 0"/>
<feBlend mode="normal" in2="effect1_dropShadow" result="effect2_dropShadow"/>
<feBlend mode="normal" in="SourceGraphic" in2="effect2_dropShadow" result="shape"/>
<feColorMatrix in="SourceAlpha" type="matrix" values="0 0 0 0 0 0 0 0 0 0 0 0 0 0 0 0 0 0 127 0" result="hardAlpha"/>
<feOffset/>
<feGaussianBlur stdDeviation="0.5"/>
<feComposite in2="hardAlpha" operator="arithmetic" k2="-1" k3="1"/>
<feColorMatrix type="matrix" values="0 0 0 0 0.98117 0 0 0 0 0.979271 0 0 0 0 0.9875 0 0 0 0.9 0"/>
<feBlend mode="normal" in2="shape" result="effect3_innerShadow"/>
</filter>
</defs>
</svg>
