<svg width="192" height="203" viewBox="0 0 192 203" fill="none" xmlns="http://www.w3.org/2000/svg">
<rect x="16.1685" y="16.1474" width="161.684" height="161.684" rx="16" fill="#0B0815"/>
<rect x="16.1685" y="16.1474" width="161.684" height="161.684" rx="16" fill="#0B0815"/>
<rect x="16.1685" y="16.1474" width="161.684" height="161.684" rx="16" fill="#0B0815"/>
<g filter="url(#filter0_ddi)">
<path d="M93.7334 83.3256L82.3987 136.651L88.3357 137.913L94.2728 139.175L105.126 88.1164L115.978 37.0577L117.382 37.356L118.785 37.6543L107.932 88.7129L97.0794 139.772L99.3463 140.253L101.613 140.735L112.948 87.4097L124.283 34.0842L118.345 32.8223L112.408 31.5603L101.556 82.6189L90.7027 133.678L89.4074 133.402L88.112 133.127L98.9649 82.0683L109.818 31.0096L107.443 30.5048L105.068 30.0001L93.7334 83.3256Z" fill="#F7228F"/>
<path d="M87.9451 152.068C85.8978 152.039 83.8063 153.174 82.7038 154.858C81.9319 156.048 81.5383 158.537 81.9198 159.926C82.1929 160.977 83.0691 162.269 84.0632 163.112C85.0142 163.946 88.4391 164.607 89.738 164.228C92.5268 163.422 94.3397 160.626 94.1002 157.506C93.898 154.53 91.1438 152.094 87.9451 152.068Z" fill="#F7228F"/>
</g>
<defs>
<filter id="filter0_ddi" x="43.6921" y="-6.99994" width="117.59" height="209.391" filterUnits="userSpaceOnUse" color-interpolation-filters="sRGB">
<feFlood flood-opacity="0" result="BackgroundImageFix"/>
<feColorMatrix in="SourceAlpha" type="matrix" values="0 0 0 0 0 0 0 0 0 0 0 0 0 0 0 0 0 0 127 0"/>
<feOffset dy="-5"/>
<feGaussianBlur stdDeviation="11"/>
<feColorMatrix type="matrix" values="0 0 0 0 0.9875 0 0 0 0 0.345625 0 0 0 0 0.674096 0 0 0 0.76 0"/>
<feBlend mode="normal" in2="BackgroundImageFix" result="effect1_dropShadow"/>
<feColorMatrix in="SourceAlpha" type="matrix" values="0 0 0 0 0 0 0 0 0 0 0 0 0 0 0 0 0 0 127 0"/>
<feOffset/>
<feGaussianBlur stdDeviation="18.5"/>
<feColorMatrix type="matrix" values="0 0 0 0 1 0 0 0 0 1 0 0 0 0 1 0 0 0 0.73 0"/>
<feBlend mode="normal" in2="effect1_dropShadow" result="effect2_dropShadow"/>
<feBlend mode="normal" in="SourceGraphic" in2="effect2_dropShadow" result="shape"/>
<feColorMatrix in="SourceAlpha" type="matrix" values="0 0 0 0 0 0 0 0 0 0 0 0 0 0 0 0 0 0 127 0" result="hardAlpha"/>
<feOffset/>
<feGaussianBlur stdDeviation="1"/>
<feComposite in2="hardAlpha" operator="arithmetic" k2="-1" k3="1"/>
<feColorMatrix type="matrix" values="0 0 0 0 0.98117 0 0 0 0 0.979271 0 0 0 0 0.9875 0 0 0 0.9 0"/>
<feBlend mode="normal" in2="shape" result="effect3_innerShadow"/>
</filter>
</defs>
</svg>
