<svg width="32" height="39" viewBox="0 0 32 39" fill="none" xmlns="http://www.w3.org/2000/svg">
<rect x="2.69482" y="5.35788" width="26.9474" height="26.9474" rx="3" fill="#0B0815"/>
<g filter="url(#filter0_ddi)">
<path d="M14.8013 16.9271L12.9038 25.8542L13.8977 26.0654L14.8916 26.2767L16.7085 17.7291L18.5253 9.18152L18.7602 9.23145L18.9952 9.28139L17.1783 17.829L15.3615 26.3766L15.741 26.4572L16.1205 26.5379L18.018 17.6108L19.9155 8.68373L18.9216 8.47247L17.9277 8.26121L16.1108 16.8088L14.294 25.3564L14.0771 25.3103L13.8603 25.2642L15.6771 16.7166L17.494 8.16902L17.0964 8.08452L16.6988 8.00002L14.8013 16.9271Z" fill="#F7228F"/>
<path d="M13.8324 28.4352C13.4896 28.4303 13.1395 28.6203 12.9549 28.9022C12.8257 29.1013 12.7598 29.518 12.8237 29.7506C12.8694 29.9266 13.0161 30.1428 13.1825 30.284C13.3417 30.4236 13.9151 30.5341 14.1325 30.4708C14.5994 30.3358 14.9029 29.8677 14.8628 29.3455C14.8289 28.8472 14.3679 28.4394 13.8324 28.4352Z" fill="#F7228F"/>
</g>
<defs>
<filter id="filter0_ddi" x="4.61816" y="0" width="23.2973" height="38.6655" filterUnits="userSpaceOnUse" color-interpolation-filters="sRGB">
<feFlood flood-opacity="0" result="BackgroundImageFix"/>
<feColorMatrix in="SourceAlpha" type="matrix" values="0 0 0 0 0 0 0 0 0 0 0 0 0 0 0 0 0 0 127 0"/>
<feOffset dy="-1"/>
<feGaussianBlur stdDeviation="1.5"/>
<feColorMatrix type="matrix" values="0 0 0 0 0.9875 0 0 0 0 0.345625 0 0 0 0 0.674096 0 0 0 0.76 0"/>
<feBlend mode="normal" in2="BackgroundImageFix" result="effect1_dropShadow"/>
<feColorMatrix in="SourceAlpha" type="matrix" values="0 0 0 0 0 0 0 0 0 0 0 0 0 0 0 0 0 0 127 0"/>
<feOffset/>
<feGaussianBlur stdDeviation="4"/>
<feColorMatrix type="matrix" values="0 0 0 0 1 0 0 0 0 1 0 0 0 0 1 0 0 0 0.73 0"/>
<feBlend mode="normal" in2="effect1_dropShadow" result="effect2_dropShadow"/>
<feBlend mode="normal" in="SourceGraphic" in2="effect2_dropShadow" result="shape"/>
<feColorMatrix in="SourceAlpha" type="matrix" values="0 0 0 0 0 0 0 0 0 0 0 0 0 0 0 0 0 0 127 0" result="hardAlpha"/>
<feOffset/>
<feGaussianBlur stdDeviation="0.25"/>
<feComposite in2="hardAlpha" operator="arithmetic" k2="-1" k3="1"/>
<feColorMatrix type="matrix" values="0 0 0 0 0.98117 0 0 0 0 0.979271 0 0 0 0 0.9875 0 0 0 0.9 0"/>
<feBlend mode="normal" in2="shape" result="effect3_innerShadow"/>
</filter>
</defs>
</svg>
