<svg width="16" height="18" viewBox="0 0 16 18" fill="none" xmlns="http://www.w3.org/2000/svg">
<rect x="1.34741" y="1.17896" width="13.4737" height="13.4737" rx="1" fill="#0B0815"/>
<g filter="url(#filter0_ddi)">
<path d="M7.40066 6.96355L6.4519 11.4271L6.94886 11.5327L7.44581 11.6384L8.35424 7.36456L9.26266 3.09076L9.38012 3.11573L9.49758 3.14069L8.58916 7.41449L7.68073 11.6883L7.87048 11.7286L8.06023 11.769L9.00898 7.30541L9.95774 2.84187L9.46078 2.73624L8.96383 2.63061L8.05541 6.9044L7.14698 11.1782L7.03856 11.1552L6.93013 11.1321L7.83855 6.85831L8.74698 2.58451L8.5482 2.54226L8.34942 2.50001L7.40066 6.96355Z" fill="#F7228F"/>
<path d="M6.91618 12.7176C6.74482 12.7152 6.56975 12.8102 6.47746 12.9511C6.41285 13.0507 6.37991 13.259 6.41184 13.3753C6.4347 13.4633 6.50804 13.5714 6.59125 13.642C6.67085 13.7118 6.95753 13.7671 7.06625 13.7354C7.29969 13.6679 7.45143 13.4339 7.43139 13.1727C7.41446 12.9236 7.18393 12.7197 6.91618 12.7176Z" fill="#F7228F"/>
</g>
<defs>
<filter id="filter0_ddi" x="2.30908" y="-1.5" width="11.6487" height="19.3328" filterUnits="userSpaceOnUse" color-interpolation-filters="sRGB">
<feFlood flood-opacity="0" result="BackgroundImageFix"/>
<feColorMatrix in="SourceAlpha" type="matrix" values="0 0 0 0 0 0 0 0 0 0 0 0 0 0 0 0 0 0 127 0"/>
<feOffset dy="-1"/>
<feGaussianBlur stdDeviation="1"/>
<feColorMatrix type="matrix" values="0 0 0 0 0.9875 0 0 0 0 0.345625 0 0 0 0 0.674096 0 0 0 0.76 0"/>
<feBlend mode="normal" in2="BackgroundImageFix" result="effect1_dropShadow"/>
<feColorMatrix in="SourceAlpha" type="matrix" values="0 0 0 0 0 0 0 0 0 0 0 0 0 0 0 0 0 0 127 0"/>
<feOffset/>
<feGaussianBlur stdDeviation="2"/>
<feColorMatrix type="matrix" values="0 0 0 0 1 0 0 0 0 1 0 0 0 0 1 0 0 0 0.73 0"/>
<feBlend mode="normal" in2="effect1_dropShadow" result="effect2_dropShadow"/>
<feBlend mode="normal" in="SourceGraphic" in2="effect2_dropShadow" result="shape"/>
<feColorMatrix in="SourceAlpha" type="matrix" values="0 0 0 0 0 0 0 0 0 0 0 0 0 0 0 0 0 0 127 0" result="hardAlpha"/>
<feOffset/>
<feGaussianBlur stdDeviation="0.1"/>
<feComposite in2="hardAlpha" operator="arithmetic" k2="-1" k3="1"/>
<feColorMatrix type="matrix" values="0 0 0 0 0.98117 0 0 0 0 0.979271 0 0 0 0 0.9875 0 0 0 0.9 0"/>
<feBlend mode="normal" in2="shape" result="effect3_innerShadow"/>
</filter>
</defs>
</svg>
